<svg xmlns="http://www.w3.org/2000/svg" viewBox="0 0 160 100" width="160" height="100" role="presentation"><rect x="0" y="0" width="160" height="100" fill="#f3eee6"/><rect x="10" y="18" width="24" height="3" fill="#731f30" fill-opacity="0.85" rx="1.5"/><rect x="10" y="26" width="40" height="8" fill="#171412" fill-opacity="0.8" rx="1"/><rect x="10" y="40" width="34" height="2" fill="#171412" fill-opacity="0.3" rx="1"/><rect x="66" y="14" width="86" height="1" fill="#171412" fill-opacity="0.5"/><rect x="66" y="20" width="60" height="4" fill="#171412" fill-opacity="0.62" rx="1"/><rect x="146" y="20" width="6" height="4" fill="#731f30" fill-opacity="0.8" rx="1"/><rect x="66" y="30" width="86" height="1" fill="#171412" fill-opacity="0.16"/><rect x="66" y="35" width="60" height="4" fill="#171412" fill-opacity="0.62" rx="1"/><rect x="146" y="35" width="6" height="4" fill="#731f30" fill-opacity="0.8" rx="1"/><rect x="66" y="45" width="86" height="1" fill="#171412" fill-opacity="0.16"/><rect x="66" y="50" width="60" height="4" fill="#171412" fill-opacity="0.62" rx="1"/><rect x="146" y="50" width="6" height="4" fill="#731f30" fill-opacity="0.8" rx="1"/><rect x="66" y="60" width="86" height="1" fill="#171412" fill-opacity="0.16"/><rect x="66" y="65" width="60" height="4" fill="#171412" fill-opacity="0.62" rx="1"/><rect x="146" y="65" width="6" height="4" fill="#731f30" fill-opacity="0.8" rx="1"/><rect x="66" y="75" width="86" height="1" fill="#171412" fill-opacity="0.16"/><rect x="66" y="80" width="60" height="4" fill="#171412" fill-opacity="0.62" rx="1"/><rect x="146" y="80" width="6" height="4" fill="#731f30" fill-opacity="0.8" rx="1"/><rect x="66" y="90" width="86" height="1" fill="#171412" fill-opacity="0.16"/></svg>