<svg xmlns="http://www.w3.org/2000/svg" viewBox="0 0 160 100" width="160" height="100" role="presentation"><rect x="0" y="0" width="160" height="100" fill="#171412"/><rect x="6" y="30" width="22" height="6" fill="#f3eee6" fill-opacity="0.85" rx="1"/><rect x="6" y="42" width="28" height="3" fill="#f3eee6" fill-opacity="0.34" rx="1.5"/><rect x="4" y="22" width="1" height="56" fill="#f3eee6" fill-opacity="0.2"/><rect x="44" y="30" width="22" height="6" fill="#f3eee6" fill-opacity="0.85" rx="1"/><rect x="44" y="42" width="28" height="3" fill="#f3eee6" fill-opacity="0.34" rx="1.5"/><rect x="42" y="22" width="1" height="56" fill="#f3eee6" fill-opacity="0.2"/><rect x="82" y="30" width="22" height="6" fill="#f3eee6" fill-opacity="0.85" rx="1"/><rect x="82" y="42" width="28" height="3" fill="#f3eee6" fill-opacity="0.34" rx="1.5"/><rect x="80" y="22" width="1" height="56" fill="#f3eee6" fill-opacity="0.2"/><rect x="120" y="30" width="22" height="6" fill="#f3eee6" fill-opacity="0.85" rx="1"/><rect x="120" y="42" width="28" height="3" fill="#f3eee6" fill-opacity="0.34" rx="1.5"/><rect x="118" y="22" width="1" height="56" fill="#f3eee6" fill-opacity="0.2"/><rect x="156" y="22" width="1" height="56" fill="#f3eee6" fill-opacity="0.2"/></svg>