<svg xmlns="http://www.w3.org/2000/svg" viewBox="0 0 160 100" width="160" height="100" role="presentation"><rect x="0" y="0" width="160" height="100" fill="#fffaf4"/><rect x="10" y="12" width="10" height="2.5" fill="#9b654e" fill-opacity="0.95" rx="1.25"/><rect x="24" y="11" width="26" height="3" fill="#251d19" fill-opacity="0.4" rx="1.5"/><rect x="10" y="20" width="66" height="7" fill="#251d19" fill-opacity="0.8" rx="2"/><rect x="10" y="34" width="62" height="42" fill="#ddd0bf" fill-opacity="1" rx="10"/><rect x="14" y="38" width="26" height="34" fill="#251d19" fill-opacity="0.2" rx="8"/><rect x="16" y="42" width="16" height="5" fill="#fffaf4" fill-opacity="1" rx="2.5"/><rect x="44" y="42" width="26" height="3" fill="#251d19" fill-opacity="0.35" rx="1.5"/><rect x="44" y="50" width="24" height="5" fill="#251d19" fill-opacity="0.7" rx="2"/><rect x="80" y="34" width="34" height="42" fill="#ddd0bf" fill-opacity="1" rx="10"/><rect x="118" y="34" width="34" height="42" fill="#ede4d8" fill-opacity="1" rx="10"/><rect x="80" y="80" width="72" height="14" fill="#ddd0bf" fill-opacity="1" rx="7"/></svg>