<svg xmlns="http://www.w3.org/2000/svg" viewBox="0 0 160 100" width="160" height="100" role="presentation"><rect x="0" y="0" width="160" height="100" fill="#151210" fill-opacity="1"/><circle cx="14" cy="18" r="6" fill="#151210" fill-opacity="0.001"/><circle cx="14" cy="18" r="6" fill="none" stroke="#eee6d8" stroke-opacity="0.35" stroke-width="1"/><rect x="24" y="14" width="30" height="5" fill="#eee6d8" fill-opacity="0.9" rx="2"/><rect x="24" y="22" width="26" height="2.5" fill="#a49a8d" fill-opacity="0.8" rx="1.25"/><rect x="8" y="32" width="44" height="3" fill="#a49a8d" fill-opacity="0.6" rx="1.5"/><rect x="8" y="42" width="32" height="8" fill="#eee6d8" fill-opacity="0.9" rx="1"/><rect x="62" y="14" width="20" height="3" fill="#d2aa69" fill-opacity="0.95" rx="1.5"/><rect x="62" y="24" width="10" height="6" fill="#eee6d8" fill-opacity="0.85" rx="1"/><rect x="62" y="36" width="26" height="3" fill="#a49a8d" fill-opacity="0.7" rx="1.5"/><rect x="96" y="14" width="18" height="3" fill="#d2aa69" fill-opacity="0.95" rx="1.5"/><rect x="96" y="24" width="26" height="3" fill="#a49a8d" fill-opacity="0.7" rx="1.5"/><rect x="96" y="32" width="22" height="3" fill="#a49a8d" fill-opacity="0.7" rx="1.5"/><rect x="96" y="40" width="28" height="3" fill="#a49a8d" fill-opacity="0.7" rx="1.5"/><circle cx="101" cy="56" r="5" fill="#eee6d8" fill-opacity="0.22"/><circle cx="115" cy="56" r="5" fill="#eee6d8" fill-opacity="0.22"/><rect x="130" y="14" width="24" height="24" fill="#eee6d8" fill-opacity="0.12" rx="3"/><rect x="0" y="72" width="160" height="1" fill="#eee6d8" fill-opacity="0.18"/><rect x="30" y="82" width="50" height="3" fill="#a49a8d" fill-opacity="0.7" rx="1.5"/></svg>