<svg xmlns="http://www.w3.org/2000/svg" viewBox="0 0 160 100" width="160" height="100" role="presentation"><rect x="0" y="0" width="160" height="100" fill="#151210" fill-opacity="1"/><rect x="10" y="10" width="14" height="3" fill="#d2aa69" fill-opacity="0.9" rx="1.5"/><rect x="34" y="10" width="60" height="9" fill="#eee6d8" fill-opacity="0.85" rx="2"/><rect x="34" y="22" width="40" height="9" fill="#eee6d8" fill-opacity="0.85" rx="2"/><rect x="106" y="12" width="44" height="3" fill="#a49a8d" fill-opacity="0.8" rx="1.5"/><rect x="106" y="19" width="34" height="3" fill="#a49a8d" fill-opacity="0.8" rx="1.5"/><rect x="10" y="40" width="140" height="1" fill="#eee6d8" fill-opacity="0.18"/><rect x="10" y="48" width="20" height="3" fill="#d2aa69" fill-opacity="0.9" rx="1.5"/><rect x="44" y="45" width="40" height="6" fill="#eee6d8" fill-opacity="0.75" rx="2"/><rect x="44" y="55" width="56" height="3" fill="#a49a8d" fill-opacity="0.7" rx="1.5"/><rect x="124" y="47" width="26" height="3" fill="#eee6d8" fill-opacity="0.7" rx="1.5"/><rect x="10" y="62" width="140" height="1" fill="#eee6d8" fill-opacity="0.18"/><rect x="10" y="70" width="20" height="3" fill="#d2aa69" fill-opacity="0.9" rx="1.5"/><rect x="44" y="67" width="34" height="6" fill="#eee6d8" fill-opacity="0.75" rx="2"/><rect x="44" y="77" width="50" height="3" fill="#a49a8d" fill-opacity="0.7" rx="1.5"/><rect x="124" y="69" width="26" height="3" fill="#eee6d8" fill-opacity="0.7" rx="1.5"/><rect x="10" y="84" width="140" height="1" fill="#eee6d8" fill-opacity="0.18"/></svg>